G75*
G70*
%OFA0B0*%
%FSLAX24Y24*%
%IPPOS*%
%LPD*%
%AMOC8*
5,1,8,0,0,1.08239X$1,22.5*
%
%ADD10R,0.0402X0.0161*%
%ADD11R,0.0500X0.0250*%
%ADD12C,0.0740*%
%ADD13R,0.0394X0.0433*%
%ADD14R,0.0433X0.0394*%
%ADD15R,0.0600X0.0600*%
%ADD16OC8,0.0600*%
%ADD17C,0.0100*%
%ADD18C,0.0160*%
%ADD19C,0.0337*%
%ADD20C,0.1266*%
D10*
X001155Y002469D03*
X001155Y002724D03*
X001155Y002980D03*
X001155Y003236D03*
X003045Y003236D03*
X003045Y002980D03*
X003045Y002724D03*
X003045Y002469D03*
D11*
X004245Y002643D03*
X004245Y002293D03*
X004245Y001943D03*
X004245Y004843D03*
X004245Y005193D03*
X004245Y005543D03*
D12*
X003000Y005443D03*
X002000Y005443D03*
X001000Y005443D03*
D13*
X000700Y004477D03*
X000700Y003808D03*
X001600Y003808D03*
X001600Y004477D03*
X002400Y004477D03*
X002400Y003808D03*
D14*
X003200Y003808D03*
X003200Y004477D03*
D15*
X001000Y000943D03*
D16*
X002000Y000943D03*
X003000Y000943D03*
X004000Y000943D03*
D17*
X000330Y000322D02*
X000330Y006083D01*
X002364Y006083D01*
X002290Y006009D01*
X002172Y005891D01*
X002095Y005923D01*
X001905Y005923D01*
X001728Y005849D01*
X001593Y005714D01*
X001520Y005538D01*
X001520Y005347D01*
X001593Y005171D01*
X001728Y005036D01*
X001905Y004963D01*
X002095Y004963D01*
X002272Y005036D01*
X002407Y005171D01*
X002480Y005347D01*
X002480Y005538D01*
X002419Y005685D01*
X002516Y005783D01*
X002661Y005783D01*
X002593Y005714D01*
X002520Y005538D01*
X002520Y005347D01*
X002593Y005171D01*
X002728Y005036D01*
X002840Y004989D01*
X002840Y004611D01*
X002873Y004577D01*
X002873Y004303D01*
X002747Y004303D01*
X002747Y004429D01*
X002448Y004429D01*
X002448Y004526D01*
X002352Y004526D01*
X002352Y004844D01*
X002183Y004844D01*
X002145Y004833D01*
X002111Y004814D01*
X002083Y004786D01*
X002063Y004752D01*
X002053Y004713D01*
X002053Y004526D01*
X002352Y004526D01*
X002352Y004429D01*
X002053Y004429D01*
X002053Y004272D01*
X001990Y004209D01*
X001879Y004098D01*
X001856Y004121D01*
X001889Y004141D01*
X001917Y004169D01*
X001937Y004203D01*
X001947Y004241D01*
X001947Y004429D01*
X001648Y004429D01*
X001648Y004526D01*
X001552Y004526D01*
X001552Y004844D01*
X001383Y004844D01*
X001345Y004833D01*
X001311Y004814D01*
X001283Y004786D01*
X001263Y004752D01*
X001253Y004713D01*
X001253Y004526D01*
X001552Y004526D01*
X001552Y004429D01*
X001253Y004429D01*
X001253Y004241D01*
X001263Y004203D01*
X001268Y004195D01*
X001205Y004221D01*
X001095Y004221D01*
X001032Y004195D01*
X001037Y004203D01*
X001047Y004241D01*
X001047Y004429D01*
X000748Y004429D01*
X000748Y004526D01*
X000652Y004526D01*
X000652Y004844D01*
X000483Y004844D01*
X000445Y004833D01*
X000411Y004814D01*
X000383Y004786D01*
X000363Y004752D01*
X000353Y004713D01*
X000353Y004526D01*
X000652Y004526D01*
X000652Y004429D01*
X000353Y004429D01*
X000353Y004241D01*
X000363Y004203D01*
X000383Y004169D01*
X000411Y004141D01*
X000444Y004121D01*
X000393Y004070D01*
X000393Y003546D01*
X000458Y003481D01*
X000942Y003481D01*
X001007Y003546D01*
X001007Y003618D01*
X001094Y003618D01*
X001140Y003664D01*
X001160Y003664D01*
X001206Y003618D01*
X001293Y003618D01*
X001293Y003546D01*
X001358Y003481D01*
X001370Y003481D01*
X001316Y003427D01*
X000909Y003427D01*
X000908Y003426D01*
X000715Y003426D01*
X000571Y003283D01*
X000460Y003171D01*
X000460Y001214D01*
X000590Y001084D01*
X000590Y000597D01*
X000654Y000533D01*
X001346Y000533D01*
X001410Y000597D01*
X001410Y001288D01*
X001346Y001353D01*
X000859Y001353D01*
X000840Y001371D01*
X000840Y002546D01*
X000844Y002542D01*
X000844Y002342D01*
X000909Y002278D01*
X001401Y002278D01*
X001432Y002309D01*
X001708Y002309D01*
X001840Y002176D01*
X001840Y001353D01*
X001830Y001353D01*
X001590Y001112D01*
X001590Y000773D01*
X001830Y000533D01*
X002170Y000533D01*
X002410Y000773D01*
X002410Y001112D01*
X002170Y001353D01*
X002160Y001353D01*
X002160Y002309D01*
X002066Y002403D01*
X001840Y002629D01*
X001506Y002629D01*
X001506Y002724D01*
X001155Y002724D01*
X001155Y002724D01*
X001506Y002724D01*
X001506Y002820D01*
X001754Y002820D01*
X002066Y003133D01*
X002160Y003226D01*
X002160Y003481D01*
X002642Y003481D01*
X002707Y003546D01*
X002707Y003648D01*
X002873Y003648D01*
X002873Y003565D01*
X002910Y003529D01*
X002885Y003504D01*
X002885Y003427D01*
X002799Y003427D01*
X002734Y003362D01*
X002734Y003110D01*
X002736Y003108D01*
X002734Y003107D01*
X002734Y002854D01*
X002736Y002852D01*
X002734Y002851D01*
X002734Y002629D01*
X002710Y002629D01*
X002534Y002453D01*
X002440Y002359D01*
X002440Y001276D01*
X002246Y001276D01*
X002160Y001375D02*
X002440Y001375D01*
X002440Y001276D02*
X002597Y001119D01*
X002590Y001112D01*
X002590Y000773D01*
X002830Y000533D01*
X003170Y000533D01*
X003410Y000773D01*
X003410Y001112D01*
X003170Y001353D01*
X002830Y001353D01*
X002823Y001346D01*
X002760Y001409D01*
X002760Y002226D01*
X002812Y002278D01*
X003291Y002278D01*
X003356Y002342D01*
X003356Y002595D01*
X003354Y002596D01*
X003356Y002598D01*
X003356Y002661D01*
X003790Y002226D01*
X003868Y002148D01*
X003855Y002125D01*
X003845Y002087D01*
X003845Y001955D01*
X004233Y001955D01*
X004233Y001930D01*
X004258Y001930D01*
X004258Y001955D01*
X004645Y001955D01*
X004645Y002087D01*
X004635Y002125D01*
X004615Y002160D01*
X004605Y002170D01*
X004605Y002463D01*
X004601Y002468D01*
X004605Y002472D01*
X004605Y002813D01*
X004541Y002878D01*
X004041Y002878D01*
X004015Y002904D01*
X004028Y002937D01*
X004028Y003048D01*
X003986Y003150D01*
X003908Y003229D01*
X003805Y003271D01*
X003695Y003271D01*
X003592Y003229D01*
X003514Y003150D01*
X003472Y003048D01*
X003472Y002997D01*
X003356Y003113D01*
X003356Y003362D01*
X003291Y003427D01*
X003261Y003427D01*
X003335Y003501D01*
X003462Y003501D01*
X003527Y003565D01*
X003527Y003983D01*
X003566Y003983D01*
X003766Y004183D01*
X003860Y004276D01*
X003860Y004652D01*
X003875Y004625D01*
X003903Y004597D01*
X003937Y004578D01*
X003976Y004568D01*
X004233Y004568D01*
X004233Y004830D01*
X004258Y004830D01*
X004258Y004855D01*
X004645Y004855D01*
X004645Y004987D01*
X004635Y005025D01*
X004615Y005060D01*
X004605Y005070D01*
X004605Y005363D01*
X004601Y005368D01*
X004605Y005372D01*
X004605Y005713D01*
X004541Y005778D01*
X003950Y005778D01*
X003885Y005713D01*
X003885Y005703D01*
X003866Y005703D01*
X003508Y006056D01*
X003482Y006083D01*
X005266Y006083D01*
X005266Y000322D01*
X000330Y000322D01*
X000330Y000390D02*
X005266Y000390D01*
X005266Y000488D02*
X000330Y000488D01*
X000330Y000587D02*
X000600Y000587D01*
X000590Y000685D02*
X000330Y000685D01*
X000330Y000784D02*
X000590Y000784D01*
X000590Y000882D02*
X000330Y000882D01*
X000330Y000981D02*
X000590Y000981D01*
X000590Y001079D02*
X000330Y001079D01*
X000330Y001178D02*
X000496Y001178D01*
X000460Y001276D02*
X000330Y001276D01*
X000330Y001375D02*
X000460Y001375D01*
X000460Y001473D02*
X000330Y001473D01*
X000330Y001572D02*
X000460Y001572D01*
X000460Y001670D02*
X000330Y001670D01*
X000330Y001769D02*
X000460Y001769D01*
X000460Y001867D02*
X000330Y001867D01*
X000330Y001966D02*
X000460Y001966D01*
X000460Y002064D02*
X000330Y002064D01*
X000330Y002163D02*
X000460Y002163D01*
X000460Y002261D02*
X000330Y002261D01*
X000330Y002360D02*
X000460Y002360D01*
X000460Y002458D02*
X000330Y002458D01*
X000330Y002557D02*
X000460Y002557D01*
X000460Y002655D02*
X000330Y002655D01*
X000330Y002754D02*
X000460Y002754D01*
X000460Y002852D02*
X000330Y002852D01*
X000330Y002951D02*
X000460Y002951D01*
X000460Y003049D02*
X000330Y003049D01*
X000330Y003148D02*
X000460Y003148D01*
X000535Y003246D02*
X000330Y003246D01*
X000330Y003345D02*
X000633Y003345D01*
X000397Y003542D02*
X000330Y003542D01*
X000330Y003443D02*
X001332Y003443D01*
X001297Y003542D02*
X001003Y003542D01*
X001116Y003640D02*
X001184Y003640D01*
X001256Y004231D02*
X001044Y004231D01*
X001047Y004330D02*
X001253Y004330D01*
X001253Y004428D02*
X001047Y004428D01*
X001047Y004526D02*
X001047Y004713D01*
X001037Y004752D01*
X001017Y004786D01*
X000989Y004814D01*
X000955Y004833D01*
X000917Y004844D01*
X000748Y004844D01*
X000748Y004526D01*
X001047Y004526D01*
X001047Y004527D02*
X001253Y004527D01*
X001253Y004625D02*
X001047Y004625D01*
X001044Y004724D02*
X001256Y004724D01*
X001325Y004822D02*
X000975Y004822D01*
X000950Y004924D02*
X000950Y005393D01*
X000481Y005393D01*
X000493Y005321D01*
X000518Y005243D01*
X000555Y005170D01*
X000603Y005104D01*
X000661Y005046D01*
X000727Y004998D01*
X000800Y004961D01*
X000878Y004935D01*
X000950Y004924D01*
X001050Y004924D02*
X001122Y004935D01*
X001200Y004961D01*
X001273Y004998D01*
X001339Y005046D01*
X001397Y005104D01*
X001445Y005170D01*
X001482Y005243D01*
X001507Y005321D01*
X001519Y005393D01*
X001050Y005393D01*
X001050Y005493D01*
X000950Y005493D01*
X000950Y005961D01*
X000878Y005950D01*
X000800Y005924D01*
X000727Y005887D01*
X000661Y005839D01*
X000603Y005781D01*
X000555Y005715D01*
X000518Y005642D01*
X000493Y005564D01*
X000481Y005493D01*
X000950Y005493D01*
X000950Y005393D01*
X001050Y005393D01*
X001050Y004924D01*
X001050Y005019D02*
X000950Y005019D01*
X000950Y005118D02*
X001050Y005118D01*
X001050Y005216D02*
X000950Y005216D01*
X000950Y005315D02*
X001050Y005315D01*
X001050Y005413D02*
X001520Y005413D01*
X001519Y005493D02*
X001507Y005564D01*
X001482Y005642D01*
X001445Y005715D01*
X001397Y005781D01*
X001339Y005839D01*
X001273Y005887D01*
X001200Y005924D01*
X001122Y005950D01*
X001050Y005961D01*
X001050Y005493D01*
X001519Y005493D01*
X001516Y005512D02*
X001520Y005512D01*
X001492Y005610D02*
X001550Y005610D01*
X001591Y005709D02*
X001448Y005709D01*
X001371Y005807D02*
X001686Y005807D01*
X001864Y005906D02*
X001237Y005906D01*
X001050Y005906D02*
X000950Y005906D01*
X000950Y005807D02*
X001050Y005807D01*
X001050Y005709D02*
X000950Y005709D01*
X000950Y005610D02*
X001050Y005610D01*
X001050Y005512D02*
X000950Y005512D01*
X000950Y005413D02*
X000330Y005413D01*
X000330Y005512D02*
X000484Y005512D01*
X000508Y005610D02*
X000330Y005610D01*
X000330Y005709D02*
X000552Y005709D01*
X000629Y005807D02*
X000330Y005807D01*
X000330Y005906D02*
X000763Y005906D01*
X000330Y006004D02*
X002285Y006004D01*
X002187Y005906D02*
X002136Y005906D01*
X002450Y005943D02*
X003395Y005943D01*
X003800Y005543D01*
X004245Y005543D01*
X004245Y005193D02*
X003900Y005193D01*
X003700Y004993D01*
X003700Y004343D01*
X003500Y004143D01*
X002150Y004143D01*
X002000Y003993D01*
X002000Y003293D01*
X001688Y002980D01*
X001155Y002980D01*
X001506Y002754D02*
X002734Y002754D01*
X002735Y002852D02*
X001786Y002852D01*
X001884Y002951D02*
X002734Y002951D01*
X002734Y003049D02*
X001983Y003049D01*
X002081Y003148D02*
X002734Y003148D01*
X002734Y003246D02*
X002160Y003246D01*
X002160Y003345D02*
X002734Y003345D01*
X002885Y003443D02*
X002160Y003443D01*
X002400Y003808D02*
X003200Y003808D01*
X003200Y003593D01*
X003045Y003437D01*
X003045Y003236D01*
X002897Y003542D02*
X002703Y003542D01*
X002707Y003640D02*
X002873Y003640D01*
X003277Y003443D02*
X005266Y003443D01*
X005266Y003542D02*
X003503Y003542D01*
X003527Y003640D02*
X005266Y003640D01*
X005266Y003739D02*
X003527Y003739D01*
X003527Y003837D02*
X005266Y003837D01*
X005266Y003936D02*
X003527Y003936D01*
X003618Y004034D02*
X005266Y004034D01*
X005266Y004133D02*
X003716Y004133D01*
X003815Y004231D02*
X005266Y004231D01*
X005266Y004330D02*
X003860Y004330D01*
X003860Y004428D02*
X005266Y004428D01*
X005266Y004527D02*
X003860Y004527D01*
X003860Y004625D02*
X003876Y004625D01*
X004233Y004625D02*
X004258Y004625D01*
X004258Y004568D02*
X004515Y004568D01*
X004553Y004578D01*
X004587Y004597D01*
X004615Y004625D01*
X005266Y004625D01*
X005266Y004724D02*
X004645Y004724D01*
X004645Y004698D02*
X004645Y004830D01*
X004258Y004830D01*
X004258Y004568D01*
X004258Y004724D02*
X004233Y004724D01*
X004233Y004822D02*
X004258Y004822D01*
X004605Y005118D02*
X005266Y005118D01*
X005266Y005019D02*
X004637Y005019D01*
X004645Y004921D02*
X005266Y004921D01*
X005266Y004822D02*
X004645Y004822D01*
X004645Y004698D02*
X004635Y004660D01*
X004615Y004625D01*
X004605Y005216D02*
X005266Y005216D01*
X005266Y005315D02*
X004605Y005315D01*
X004605Y005413D02*
X005266Y005413D01*
X005266Y005512D02*
X004605Y005512D01*
X004605Y005610D02*
X005266Y005610D01*
X005266Y005709D02*
X004605Y005709D01*
X005266Y005807D02*
X003760Y005807D01*
X003860Y005709D02*
X003885Y005709D01*
X003660Y005906D02*
X005266Y005906D01*
X005266Y006004D02*
X003561Y006004D01*
X003000Y005443D02*
X003000Y004677D01*
X003200Y004477D01*
X002873Y004428D02*
X002747Y004428D01*
X002747Y004330D02*
X002873Y004330D01*
X002873Y004527D02*
X002747Y004527D01*
X002747Y004526D02*
X002747Y004713D01*
X002737Y004752D01*
X002717Y004786D01*
X002689Y004814D01*
X002655Y004833D01*
X002617Y004844D01*
X002448Y004844D01*
X002448Y004526D01*
X002747Y004526D01*
X002747Y004625D02*
X002840Y004625D01*
X002840Y004724D02*
X002744Y004724D01*
X002675Y004822D02*
X002840Y004822D01*
X002840Y004921D02*
X000330Y004921D01*
X000330Y004822D02*
X000425Y004822D01*
X000356Y004724D02*
X000330Y004724D01*
X000330Y004625D02*
X000353Y004625D01*
X000353Y004527D02*
X000330Y004527D01*
X000330Y004428D02*
X000353Y004428D01*
X000353Y004330D02*
X000330Y004330D01*
X000330Y004231D02*
X000356Y004231D01*
X000330Y004133D02*
X000425Y004133D01*
X000393Y004034D02*
X000330Y004034D01*
X000330Y003936D02*
X000393Y003936D01*
X000393Y003837D02*
X000330Y003837D01*
X000330Y003739D02*
X000393Y003739D01*
X000393Y003640D02*
X000330Y003640D01*
X000652Y004527D02*
X000748Y004527D01*
X000748Y004625D02*
X000652Y004625D01*
X000652Y004724D02*
X000748Y004724D01*
X000748Y004822D02*
X000652Y004822D01*
X000698Y005019D02*
X000330Y005019D01*
X000330Y005118D02*
X000593Y005118D01*
X000532Y005216D02*
X000330Y005216D01*
X000330Y005315D02*
X000495Y005315D01*
X001302Y005019D02*
X001768Y005019D01*
X001646Y005118D02*
X001407Y005118D01*
X001468Y005216D02*
X001574Y005216D01*
X001533Y005315D02*
X001505Y005315D01*
X001648Y004844D02*
X001648Y004526D01*
X001947Y004526D01*
X001947Y004713D01*
X001937Y004752D01*
X001917Y004786D01*
X001889Y004814D01*
X001855Y004833D01*
X001817Y004844D01*
X001648Y004844D01*
X001648Y004822D02*
X001552Y004822D01*
X001552Y004724D02*
X001648Y004724D01*
X001648Y004625D02*
X001552Y004625D01*
X001552Y004527D02*
X001648Y004527D01*
X001875Y004822D02*
X002125Y004822D01*
X002056Y004724D02*
X001944Y004724D01*
X001947Y004625D02*
X002053Y004625D01*
X002053Y004527D02*
X001947Y004527D01*
X001947Y004428D02*
X002053Y004428D01*
X002053Y004330D02*
X001947Y004330D01*
X001944Y004231D02*
X002012Y004231D01*
X001914Y004133D02*
X001875Y004133D01*
X002352Y004527D02*
X002448Y004527D01*
X002448Y004625D02*
X002352Y004625D01*
X002352Y004724D02*
X002448Y004724D01*
X002448Y004822D02*
X002352Y004822D01*
X002232Y005019D02*
X002768Y005019D01*
X002646Y005118D02*
X002354Y005118D01*
X002426Y005216D02*
X002574Y005216D01*
X002533Y005315D02*
X002467Y005315D01*
X002480Y005413D02*
X002520Y005413D01*
X002520Y005512D02*
X002480Y005512D01*
X002450Y005610D02*
X002550Y005610D01*
X002591Y005709D02*
X002442Y005709D01*
X002450Y005943D02*
X002000Y005493D01*
X002000Y005443D01*
X003356Y003345D02*
X005266Y003345D01*
X005266Y003246D02*
X003866Y003246D01*
X003987Y003148D02*
X005266Y003148D01*
X005266Y003049D02*
X004028Y003049D01*
X004028Y002951D02*
X005266Y002951D01*
X005266Y002852D02*
X004566Y002852D01*
X004605Y002754D02*
X005266Y002754D01*
X005266Y002655D02*
X004605Y002655D01*
X004605Y002557D02*
X005266Y002557D01*
X005266Y002458D02*
X004605Y002458D01*
X004605Y002360D02*
X005266Y002360D01*
X005266Y002261D02*
X004605Y002261D01*
X004612Y002163D02*
X005266Y002163D01*
X005266Y002064D02*
X004645Y002064D01*
X004645Y001966D02*
X005266Y001966D01*
X005266Y001867D02*
X004645Y001867D01*
X004645Y001930D02*
X004645Y001798D01*
X004635Y001760D01*
X004615Y001725D01*
X004587Y001697D01*
X004553Y001678D01*
X004515Y001668D01*
X004258Y001668D01*
X004258Y001930D01*
X004645Y001930D01*
X004637Y001769D02*
X005266Y001769D01*
X005266Y001670D02*
X004524Y001670D01*
X004258Y001670D02*
X004233Y001670D01*
X004233Y001668D02*
X004233Y001930D01*
X003845Y001930D01*
X003845Y001798D01*
X003855Y001760D01*
X003875Y001725D01*
X003903Y001697D01*
X003937Y001678D01*
X003976Y001668D01*
X004233Y001668D01*
X004233Y001769D02*
X004258Y001769D01*
X004258Y001867D02*
X004233Y001867D01*
X003966Y001670D02*
X002760Y001670D01*
X002760Y001769D02*
X003853Y001769D01*
X003845Y001867D02*
X002760Y001867D01*
X002760Y001966D02*
X003845Y001966D01*
X003845Y002064D02*
X002760Y002064D01*
X002760Y002163D02*
X003854Y002163D01*
X003755Y002261D02*
X002795Y002261D01*
X002600Y002293D02*
X002776Y002469D01*
X003045Y002469D01*
X002734Y002655D02*
X001506Y002655D01*
X001774Y002469D02*
X002000Y002243D01*
X002000Y000943D01*
X002322Y000685D02*
X002678Y000685D01*
X002590Y000784D02*
X002410Y000784D01*
X002410Y000882D02*
X002590Y000882D01*
X002590Y000981D02*
X002410Y000981D01*
X002410Y001079D02*
X002590Y001079D01*
X002539Y001178D02*
X002345Y001178D01*
X002600Y001343D02*
X003000Y000943D01*
X003322Y000685D02*
X003621Y000685D01*
X003550Y000756D02*
X003814Y000493D01*
X003950Y000493D01*
X003950Y000893D01*
X003550Y000893D01*
X003550Y000756D01*
X003550Y000784D02*
X003410Y000784D01*
X003410Y000882D02*
X003550Y000882D01*
X003550Y000993D02*
X003950Y000993D01*
X003950Y001393D01*
X003814Y001393D01*
X003550Y001129D01*
X003550Y000993D01*
X003550Y001079D02*
X003410Y001079D01*
X003345Y001178D02*
X003599Y001178D01*
X003697Y001276D02*
X003246Y001276D01*
X003410Y000981D02*
X003950Y000981D01*
X003950Y000993D02*
X003950Y000893D01*
X004050Y000893D01*
X004050Y000993D01*
X003950Y000993D01*
X004050Y000993D02*
X004050Y001393D01*
X004186Y001393D01*
X004450Y001129D01*
X004450Y000993D01*
X004050Y000993D01*
X004050Y000981D02*
X005266Y000981D01*
X005266Y001079D02*
X004450Y001079D01*
X004401Y001178D02*
X005266Y001178D01*
X005266Y001276D02*
X004303Y001276D01*
X004204Y001375D02*
X005266Y001375D01*
X005266Y001473D02*
X002760Y001473D01*
X002760Y001572D02*
X005266Y001572D01*
X005266Y000882D02*
X004450Y000882D01*
X004450Y000893D02*
X004050Y000893D01*
X004050Y000493D01*
X004186Y000493D01*
X004450Y000756D01*
X004450Y000893D01*
X004450Y000784D02*
X005266Y000784D01*
X005266Y000685D02*
X004379Y000685D01*
X004280Y000587D02*
X005266Y000587D01*
X004050Y000587D02*
X003950Y000587D01*
X003950Y000685D02*
X004050Y000685D01*
X004050Y000784D02*
X003950Y000784D01*
X003950Y000882D02*
X004050Y000882D01*
X004050Y001079D02*
X003950Y001079D01*
X003950Y001178D02*
X004050Y001178D01*
X004050Y001276D02*
X003950Y001276D01*
X003950Y001375D02*
X004050Y001375D01*
X003796Y001375D02*
X002794Y001375D01*
X002600Y001343D02*
X002600Y002293D01*
X002539Y002458D02*
X002011Y002458D01*
X002109Y002360D02*
X002441Y002360D01*
X002440Y002261D02*
X002160Y002261D01*
X002160Y002163D02*
X002440Y002163D01*
X002440Y002064D02*
X002160Y002064D01*
X002160Y001966D02*
X002440Y001966D01*
X002440Y001867D02*
X002160Y001867D01*
X002160Y001769D02*
X002440Y001769D01*
X002440Y001670D02*
X002160Y001670D01*
X002160Y001572D02*
X002440Y001572D01*
X002440Y001473D02*
X002160Y001473D01*
X001840Y001473D02*
X000840Y001473D01*
X000840Y001572D02*
X001840Y001572D01*
X001840Y001670D02*
X000840Y001670D01*
X000840Y001769D02*
X001840Y001769D01*
X001840Y001867D02*
X000840Y001867D01*
X000840Y001966D02*
X001840Y001966D01*
X001840Y002064D02*
X000840Y002064D01*
X000840Y002163D02*
X001840Y002163D01*
X001755Y002261D02*
X000840Y002261D01*
X000840Y002360D02*
X000844Y002360D01*
X000840Y002458D02*
X000844Y002458D01*
X001155Y002469D02*
X001774Y002469D01*
X001912Y002557D02*
X002638Y002557D01*
X003045Y002980D02*
X003262Y002980D01*
X003950Y002293D01*
X004245Y002293D01*
X004245Y002643D02*
X004050Y002643D01*
X003750Y002943D01*
X003750Y002993D01*
X003634Y003246D02*
X003356Y003246D01*
X003356Y003148D02*
X003513Y003148D01*
X003472Y003049D02*
X003420Y003049D01*
X003361Y002655D02*
X003356Y002655D01*
X003356Y002557D02*
X003460Y002557D01*
X003558Y002458D02*
X003356Y002458D01*
X003356Y002360D02*
X003657Y002360D01*
X003720Y000587D02*
X003224Y000587D01*
X002776Y000587D02*
X002224Y000587D01*
X001776Y000587D02*
X001400Y000587D01*
X001410Y000685D02*
X001678Y000685D01*
X001590Y000784D02*
X001410Y000784D01*
X001410Y000882D02*
X001590Y000882D01*
X001590Y000981D02*
X001410Y000981D01*
X001410Y001079D02*
X001590Y001079D01*
X001655Y001178D02*
X001410Y001178D01*
X001410Y001276D02*
X001754Y001276D01*
X001840Y001375D02*
X000840Y001375D01*
D18*
X000650Y001293D02*
X001000Y000943D01*
X000650Y001293D02*
X000650Y003093D01*
X000794Y003236D01*
X001155Y003236D01*
X001394Y003236D01*
X001600Y003443D01*
X001600Y003808D01*
X001285Y003808D01*
X001150Y003943D01*
X001015Y003808D01*
X000700Y003808D01*
D19*
X001150Y003943D03*
X003750Y002993D03*
D20*
X004400Y003793D03*
M02*
