G75*
G70*
%OFA0B0*%
%FSLAX24Y24*%
%IPPOS*%
%LPD*%
%AMOC8*
5,1,8,0,0,1.08239X$1,22.5*
%
%ADD10C,0.0740*%
%ADD11R,0.0600X0.0600*%
%ADD12OC8,0.0600*%
%ADD13C,0.0160*%
%ADD14C,0.0337*%
%ADD15C,0.0100*%
%ADD16C,0.1266*%
D10*
X001000Y005443D03*
X002000Y005443D03*
X003000Y005443D03*
D11*
X001000Y000943D03*
D12*
X002000Y000943D03*
X003000Y000943D03*
X004000Y000943D03*
D13*
X001150Y003943D02*
X001150Y004743D01*
X001300Y004893D01*
X001800Y004893D01*
X002000Y005093D01*
X002000Y005443D01*
D14*
X001150Y003943D03*
X003750Y002993D03*
D15*
X005266Y000322D02*
X000330Y000322D01*
X000330Y006083D01*
X005266Y006083D01*
X005266Y000322D01*
X005266Y000390D02*
X000330Y000390D01*
X000330Y000488D02*
X005266Y000488D01*
X005266Y000587D02*
X004280Y000587D01*
X004379Y000685D02*
X005266Y000685D01*
X005266Y000784D02*
X004450Y000784D01*
X004450Y000756D02*
X004450Y000893D01*
X004050Y000893D01*
X004050Y000993D01*
X003950Y000993D01*
X003950Y001393D01*
X003814Y001393D01*
X003550Y001129D01*
X003550Y000993D01*
X003950Y000993D01*
X003950Y000893D01*
X003550Y000893D01*
X003550Y000756D01*
X003814Y000493D01*
X003950Y000493D01*
X003950Y000893D01*
X004050Y000893D01*
X004050Y000493D01*
X004186Y000493D01*
X004450Y000756D01*
X004450Y000882D02*
X005266Y000882D01*
X005266Y000981D02*
X004050Y000981D01*
X004050Y000993D02*
X004450Y000993D01*
X004450Y001129D01*
X004186Y001393D01*
X004050Y001393D01*
X004050Y000993D01*
X003950Y000981D02*
X003410Y000981D01*
X003410Y001079D02*
X003550Y001079D01*
X003599Y001178D02*
X003345Y001178D01*
X003410Y001112D02*
X003170Y001353D01*
X002830Y001353D01*
X002590Y001112D01*
X002590Y000773D01*
X002830Y000533D01*
X003170Y000533D01*
X003410Y000773D01*
X003410Y001112D01*
X003246Y001276D02*
X003697Y001276D01*
X003796Y001375D02*
X000330Y001375D01*
X000330Y001276D02*
X000590Y001276D01*
X000590Y001288D02*
X000590Y000597D01*
X000654Y000533D01*
X001346Y000533D01*
X001410Y000597D01*
X001410Y001288D01*
X001346Y001353D01*
X000654Y001353D01*
X000590Y001288D01*
X000590Y001178D02*
X000330Y001178D01*
X000330Y001079D02*
X000590Y001079D01*
X000590Y000981D02*
X000330Y000981D01*
X000330Y000882D02*
X000590Y000882D01*
X000590Y000784D02*
X000330Y000784D01*
X000330Y000685D02*
X000590Y000685D01*
X000600Y000587D02*
X000330Y000587D01*
X000330Y001473D02*
X005266Y001473D01*
X005266Y001572D02*
X000330Y001572D01*
X000330Y001670D02*
X005266Y001670D01*
X005266Y001769D02*
X000330Y001769D01*
X000330Y001867D02*
X005266Y001867D01*
X005266Y001966D02*
X000330Y001966D01*
X000330Y002064D02*
X005266Y002064D01*
X005266Y002163D02*
X000330Y002163D01*
X000330Y002261D02*
X005266Y002261D01*
X005266Y002360D02*
X000330Y002360D01*
X000330Y002458D02*
X005266Y002458D01*
X005266Y002557D02*
X000330Y002557D01*
X000330Y002655D02*
X005266Y002655D01*
X005266Y002754D02*
X003901Y002754D01*
X003908Y002756D02*
X003986Y002835D01*
X004028Y002937D01*
X004028Y003048D01*
X003986Y003150D01*
X003910Y003226D01*
X003910Y003259D01*
X003816Y003353D01*
X003616Y003553D01*
X002116Y003553D01*
X001566Y004103D01*
X001384Y004103D01*
X001340Y004146D01*
X001340Y004664D01*
X001379Y004703D01*
X001879Y004703D01*
X001990Y004814D01*
X002169Y004993D01*
X002272Y005036D01*
X002407Y005171D01*
X002480Y005347D01*
X002480Y005538D01*
X002407Y005714D01*
X002272Y005849D01*
X002095Y005923D01*
X001905Y005923D01*
X001728Y005849D01*
X001593Y005714D01*
X001520Y005538D01*
X001520Y005347D01*
X001593Y005171D01*
X001681Y005083D01*
X001375Y005083D01*
X001397Y005104D01*
X001445Y005170D01*
X001482Y005243D01*
X001507Y005321D01*
X001519Y005393D01*
X001050Y005393D01*
X001050Y005493D01*
X000950Y005493D01*
X000950Y005961D01*
X000878Y005950D01*
X000800Y005924D01*
X000727Y005887D01*
X000661Y005839D01*
X000603Y005781D01*
X000555Y005715D01*
X000518Y005642D01*
X000493Y005564D01*
X000481Y005493D01*
X000950Y005493D01*
X000950Y005393D01*
X000481Y005393D01*
X000493Y005321D01*
X000518Y005243D01*
X000555Y005170D01*
X000603Y005104D01*
X000661Y005046D01*
X000727Y004998D01*
X000800Y004961D01*
X000878Y004935D01*
X000950Y004924D01*
X000950Y005393D01*
X001050Y005393D01*
X001050Y004924D01*
X001065Y004926D01*
X000960Y004821D01*
X000960Y004146D01*
X000914Y004100D01*
X000872Y003998D01*
X000872Y003887D01*
X000914Y003785D01*
X000992Y003706D01*
X001095Y003664D01*
X001205Y003664D01*
X001308Y003706D01*
X001384Y003783D01*
X001434Y003783D01*
X001890Y003326D01*
X001984Y003233D01*
X003484Y003233D01*
X003540Y003176D01*
X003514Y003150D01*
X003472Y003048D01*
X003472Y002937D01*
X003514Y002835D01*
X003592Y002756D01*
X003695Y002714D01*
X003805Y002714D01*
X003908Y002756D01*
X003993Y002852D02*
X005266Y002852D01*
X005266Y002951D02*
X004028Y002951D01*
X004028Y003049D02*
X005266Y003049D01*
X005266Y003148D02*
X003987Y003148D01*
X003910Y003246D02*
X005266Y003246D01*
X005266Y003345D02*
X003824Y003345D01*
X003726Y003443D02*
X005266Y003443D01*
X005266Y003542D02*
X003627Y003542D01*
X003550Y003393D02*
X003750Y003193D01*
X003750Y002993D01*
X003507Y002852D02*
X000330Y002852D01*
X000330Y002754D02*
X003599Y002754D01*
X003472Y002951D02*
X000330Y002951D01*
X000330Y003049D02*
X003472Y003049D01*
X003513Y003148D02*
X000330Y003148D01*
X000330Y003246D02*
X001970Y003246D01*
X001872Y003345D02*
X000330Y003345D01*
X000330Y003443D02*
X001773Y003443D01*
X001675Y003542D02*
X000330Y003542D01*
X000330Y003640D02*
X001576Y003640D01*
X001478Y003739D02*
X001340Y003739D01*
X001500Y003943D02*
X001150Y003943D01*
X000946Y004133D02*
X000330Y004133D01*
X000330Y004231D02*
X000960Y004231D01*
X000960Y004330D02*
X000330Y004330D01*
X000330Y004428D02*
X000960Y004428D01*
X000960Y004527D02*
X000330Y004527D01*
X000330Y004625D02*
X000960Y004625D01*
X000960Y004724D02*
X000330Y004724D01*
X000330Y004822D02*
X000961Y004822D01*
X001059Y004921D02*
X000330Y004921D01*
X000330Y005019D02*
X000698Y005019D01*
X000593Y005118D02*
X000330Y005118D01*
X000330Y005216D02*
X000532Y005216D01*
X000495Y005315D02*
X000330Y005315D01*
X000330Y005413D02*
X000950Y005413D01*
X000950Y005512D02*
X001050Y005512D01*
X001050Y005493D02*
X001050Y005961D01*
X001122Y005950D01*
X001200Y005924D01*
X001273Y005887D01*
X001339Y005839D01*
X001397Y005781D01*
X001445Y005715D01*
X001482Y005642D01*
X001507Y005564D01*
X001519Y005493D01*
X001050Y005493D01*
X001050Y005413D02*
X001520Y005413D01*
X001516Y005512D02*
X001520Y005512D01*
X001492Y005610D02*
X001550Y005610D01*
X001591Y005709D02*
X001448Y005709D01*
X001371Y005807D02*
X001686Y005807D01*
X001864Y005906D02*
X001237Y005906D01*
X001050Y005906D02*
X000950Y005906D01*
X000950Y005807D02*
X001050Y005807D01*
X001050Y005709D02*
X000950Y005709D01*
X000950Y005610D02*
X001050Y005610D01*
X001050Y005315D02*
X000950Y005315D01*
X000950Y005216D02*
X001050Y005216D01*
X001050Y005118D02*
X000950Y005118D01*
X000950Y005019D02*
X001050Y005019D01*
X001407Y005118D02*
X001646Y005118D01*
X001574Y005216D02*
X001468Y005216D01*
X001505Y005315D02*
X001533Y005315D01*
X001998Y004822D02*
X005266Y004822D01*
X005266Y004921D02*
X002097Y004921D01*
X002232Y005019D02*
X002768Y005019D01*
X002728Y005036D02*
X002905Y004963D01*
X003095Y004963D01*
X003272Y005036D01*
X003407Y005171D01*
X003480Y005347D01*
X003480Y005538D01*
X003407Y005714D01*
X003272Y005849D01*
X003095Y005923D01*
X002905Y005923D01*
X002728Y005849D01*
X002593Y005714D01*
X002520Y005538D01*
X002520Y005347D01*
X002593Y005171D01*
X002728Y005036D01*
X002646Y005118D02*
X002354Y005118D01*
X002426Y005216D02*
X002574Y005216D01*
X002533Y005315D02*
X002467Y005315D01*
X002480Y005413D02*
X002520Y005413D01*
X002520Y005512D02*
X002480Y005512D01*
X002450Y005610D02*
X002550Y005610D01*
X002591Y005709D02*
X002409Y005709D01*
X002314Y005807D02*
X002686Y005807D01*
X002864Y005906D02*
X002136Y005906D01*
X003136Y005906D02*
X005266Y005906D01*
X005266Y006004D02*
X000330Y006004D01*
X000330Y005906D02*
X000763Y005906D01*
X000629Y005807D02*
X000330Y005807D01*
X000330Y005709D02*
X000552Y005709D01*
X000508Y005610D02*
X000330Y005610D01*
X000330Y005512D02*
X000484Y005512D01*
X001340Y004625D02*
X005266Y004625D01*
X005266Y004527D02*
X001340Y004527D01*
X001340Y004428D02*
X005266Y004428D01*
X005266Y004330D02*
X001340Y004330D01*
X001340Y004231D02*
X005266Y004231D01*
X005266Y004133D02*
X001354Y004133D01*
X001500Y003943D02*
X002050Y003393D01*
X003550Y003393D01*
X003232Y005019D02*
X005266Y005019D01*
X005266Y005118D02*
X003354Y005118D01*
X003426Y005216D02*
X005266Y005216D01*
X005266Y005315D02*
X003467Y005315D01*
X003480Y005413D02*
X005266Y005413D01*
X005266Y005512D02*
X003480Y005512D01*
X003450Y005610D02*
X005266Y005610D01*
X005266Y005709D02*
X003409Y005709D01*
X003314Y005807D02*
X005266Y005807D01*
X005266Y004724D02*
X001900Y004724D01*
X001635Y004034D02*
X005266Y004034D01*
X005266Y003936D02*
X001733Y003936D01*
X001832Y003837D02*
X005266Y003837D01*
X005266Y003739D02*
X001930Y003739D01*
X002029Y003640D02*
X005266Y003640D01*
X005266Y001375D02*
X004204Y001375D01*
X004303Y001276D02*
X005266Y001276D01*
X005266Y001178D02*
X004401Y001178D01*
X004450Y001079D02*
X005266Y001079D01*
X004050Y001079D02*
X003950Y001079D01*
X003950Y001178D02*
X004050Y001178D01*
X004050Y001276D02*
X003950Y001276D01*
X003950Y001375D02*
X004050Y001375D01*
X004050Y000882D02*
X003950Y000882D01*
X003950Y000784D02*
X004050Y000784D01*
X004050Y000685D02*
X003950Y000685D01*
X003950Y000587D02*
X004050Y000587D01*
X003720Y000587D02*
X003224Y000587D01*
X003322Y000685D02*
X003621Y000685D01*
X003550Y000784D02*
X003410Y000784D01*
X003410Y000882D02*
X003550Y000882D01*
X002776Y000587D02*
X002224Y000587D01*
X002170Y000533D02*
X002410Y000773D01*
X002410Y001112D01*
X002170Y001353D01*
X001830Y001353D01*
X001590Y001112D01*
X001590Y000773D01*
X001830Y000533D01*
X002170Y000533D01*
X002322Y000685D02*
X002678Y000685D01*
X002590Y000784D02*
X002410Y000784D01*
X002410Y000882D02*
X002590Y000882D01*
X002590Y000981D02*
X002410Y000981D01*
X002410Y001079D02*
X002590Y001079D01*
X002655Y001178D02*
X002345Y001178D01*
X002246Y001276D02*
X002754Y001276D01*
X001776Y000587D02*
X001400Y000587D01*
X001410Y000685D02*
X001678Y000685D01*
X001590Y000784D02*
X001410Y000784D01*
X001410Y000882D02*
X001590Y000882D01*
X001590Y000981D02*
X001410Y000981D01*
X001410Y001079D02*
X001590Y001079D01*
X001655Y001178D02*
X001410Y001178D01*
X001410Y001276D02*
X001754Y001276D01*
X000960Y003739D02*
X000330Y003739D01*
X000330Y003837D02*
X000892Y003837D01*
X000872Y003936D02*
X000330Y003936D01*
X000330Y004034D02*
X000887Y004034D01*
D16*
X004400Y003793D03*
M02*
