G75*
G70*
%OFA0B0*%
%FSLAX24Y24*%
%IPPOS*%
%LPD*%
%AMOC8*
5,1,8,0,0,1.08239X$1,22.5*
%
%ADD10C,0.0080*%
%ADD11R,0.0138X0.0098*%
%ADD12R,0.0138X0.0098*%
%ADD13R,0.0138X0.0098*%
D10*
X000500Y000443D02*
X001500Y000443D01*
X001500Y000693D01*
X001750Y000443D01*
X002250Y000443D01*
X002500Y000693D01*
X002500Y001193D01*
X002250Y001443D01*
X001750Y001443D01*
X001500Y001193D01*
X001500Y000693D01*
X001500Y001193D02*
X001500Y001443D01*
X000500Y001443D01*
X000500Y000443D01*
X000720Y001633D02*
X000860Y001633D01*
X000790Y001633D02*
X000790Y002053D01*
X000720Y002053D02*
X000860Y002053D01*
X001040Y001933D02*
X001254Y002146D01*
X001254Y002199D01*
X001200Y002253D01*
X001093Y002253D01*
X001040Y002199D01*
X001040Y001933D02*
X001254Y001933D01*
X001488Y001983D02*
X001488Y001703D01*
X001558Y001633D01*
X001698Y001633D01*
X001768Y001703D01*
X001768Y001983D02*
X001698Y002053D01*
X001558Y002053D01*
X001488Y001983D01*
X001667Y002301D02*
X002533Y002301D01*
X002553Y002303D01*
X002573Y002307D01*
X002591Y002315D01*
X002608Y002325D01*
X002624Y002338D01*
X002637Y002354D01*
X002647Y002371D01*
X002655Y002389D01*
X002659Y002409D01*
X002661Y002429D01*
X002661Y003272D01*
X002659Y003292D01*
X002655Y003312D01*
X002647Y003330D01*
X002637Y003347D01*
X002624Y003363D01*
X002608Y003376D01*
X002591Y003386D01*
X002573Y003394D01*
X002553Y003398D01*
X002533Y003400D01*
X001667Y003400D01*
X001645Y003398D01*
X001623Y003392D01*
X001603Y003383D01*
X001585Y003370D01*
X001569Y003354D01*
X001556Y003336D01*
X001547Y003316D01*
X001541Y003294D01*
X001539Y003272D01*
X001539Y002429D01*
X001541Y002407D01*
X001547Y002385D01*
X001556Y002365D01*
X001569Y002347D01*
X001585Y002331D01*
X001603Y002318D01*
X001623Y002309D01*
X001645Y002303D01*
X001667Y002301D01*
X001812Y002534D02*
X002162Y002534D01*
X002232Y002604D01*
X002232Y002744D01*
X002162Y002814D01*
X001812Y002814D01*
X001952Y002995D02*
X001812Y003135D01*
X002232Y003135D01*
X002232Y002995D02*
X002232Y003275D01*
X002246Y003781D02*
X002526Y003781D01*
X002596Y003851D01*
X002596Y003992D01*
X002526Y004062D01*
X002526Y004242D02*
X002596Y004312D01*
X002596Y004452D01*
X002526Y004522D01*
X002456Y004522D01*
X002386Y004452D01*
X002386Y004382D01*
X002386Y004452D02*
X002316Y004522D01*
X002246Y004522D01*
X002176Y004452D01*
X002176Y004312D01*
X002246Y004242D01*
X002246Y004062D02*
X002176Y003992D01*
X002176Y003851D01*
X002246Y003781D01*
X001835Y003875D02*
X001835Y004015D01*
X001765Y004085D01*
X001835Y004265D02*
X001835Y004546D01*
X001835Y004405D02*
X001415Y004405D01*
X001555Y004265D01*
X001485Y004085D02*
X001415Y004015D01*
X001415Y003875D01*
X001485Y003805D01*
X001765Y003805D01*
X001835Y003875D01*
X001750Y004943D02*
X001500Y005193D01*
X001250Y004943D01*
X000750Y004943D01*
X000500Y005193D01*
X000500Y005693D01*
X000750Y005943D01*
X001250Y005943D01*
X001500Y005693D01*
X001750Y005943D01*
X002250Y005943D01*
X002500Y005693D01*
X002750Y005943D01*
X003250Y005943D01*
X003500Y005693D01*
X003500Y005193D01*
X003250Y004943D01*
X002750Y004943D01*
X002500Y005193D01*
X002250Y004943D01*
X001750Y004943D01*
X000927Y004483D02*
X000927Y004203D01*
X000647Y004483D01*
X000577Y004483D01*
X000507Y004413D01*
X000507Y004273D01*
X000577Y004203D01*
X000577Y004023D02*
X000507Y003953D01*
X000507Y003813D01*
X000577Y003743D01*
X000857Y003743D01*
X000927Y003813D01*
X000927Y003953D01*
X000857Y004023D01*
X002344Y002490D02*
X002346Y002510D01*
X002352Y002530D01*
X002361Y002548D01*
X002374Y002564D01*
X002389Y002577D01*
X002407Y002587D01*
X002426Y002594D01*
X002446Y002597D01*
X002466Y002596D01*
X002486Y002591D01*
X002504Y002583D01*
X002521Y002571D01*
X002535Y002556D01*
X002546Y002539D01*
X002554Y002520D01*
X002558Y002500D01*
X002558Y002480D01*
X002554Y002460D01*
X002546Y002441D01*
X002535Y002424D01*
X002521Y002409D01*
X002505Y002397D01*
X002486Y002389D01*
X002466Y002384D01*
X002446Y002383D01*
X002426Y002386D01*
X002407Y002393D01*
X002389Y002403D01*
X002374Y002416D01*
X002361Y002432D01*
X002352Y002450D01*
X002346Y002470D01*
X002344Y002490D01*
X002549Y002053D02*
X002689Y001913D01*
X002689Y001633D01*
X002869Y001633D02*
X003079Y001633D01*
X003149Y001703D01*
X003149Y001983D01*
X003079Y002053D01*
X002869Y002053D01*
X002869Y001633D01*
X002750Y001443D02*
X003250Y001443D01*
X003500Y001193D01*
X003750Y001443D01*
X004250Y001443D01*
X004500Y001193D01*
X004500Y000693D01*
X004250Y000443D01*
X003750Y000443D01*
X003500Y000693D01*
X003250Y000443D01*
X002750Y000443D01*
X002500Y000693D01*
X002500Y001193D02*
X002750Y001443D01*
X002408Y001633D02*
X002408Y001913D01*
X002549Y002053D01*
X002408Y001843D02*
X002689Y001843D01*
X003329Y001983D02*
X003329Y001703D01*
X003399Y001633D01*
X003539Y001633D01*
X003609Y001703D01*
X003845Y001793D02*
X003845Y002793D01*
X003847Y002810D01*
X003851Y002827D01*
X003858Y002843D01*
X003868Y002857D01*
X003881Y002870D01*
X003895Y002880D01*
X003911Y002887D01*
X003928Y002891D01*
X003945Y002893D01*
X004545Y002893D01*
X004562Y002891D01*
X004579Y002887D01*
X004595Y002880D01*
X004609Y002870D01*
X004622Y002857D01*
X004632Y002843D01*
X004639Y002827D01*
X004643Y002810D01*
X004645Y002793D01*
X004645Y001793D01*
X004643Y001776D01*
X004639Y001759D01*
X004632Y001743D01*
X004622Y001729D01*
X004609Y001716D01*
X004595Y001706D01*
X004579Y001699D01*
X004562Y001695D01*
X004545Y001693D01*
X003945Y001693D01*
X003928Y001695D01*
X003911Y001699D01*
X003895Y001706D01*
X003881Y001716D01*
X003868Y001729D01*
X003858Y001743D01*
X003851Y001759D01*
X003847Y001776D01*
X003845Y001793D01*
X003609Y001983D02*
X003539Y002053D01*
X003399Y002053D01*
X003329Y001983D01*
X003500Y001193D02*
X003500Y000693D01*
X004785Y001880D02*
X004892Y001986D01*
X005105Y001986D01*
X005105Y002141D02*
X005105Y002301D01*
X005052Y002355D01*
X004838Y002355D01*
X004785Y002301D01*
X004785Y002141D01*
X005105Y002141D01*
X004945Y001986D02*
X004945Y001773D01*
X004892Y001773D02*
X004785Y001880D01*
X004892Y001773D02*
X005105Y001773D01*
X005052Y002509D02*
X004838Y002509D01*
X004785Y002563D01*
X004785Y002670D01*
X004838Y002723D01*
X005052Y002509D01*
X005105Y002563D01*
X005105Y002670D01*
X005052Y002723D01*
X004838Y002723D01*
X003360Y003833D02*
X002940Y003833D01*
X002940Y004043D01*
X003010Y004113D01*
X003150Y004113D01*
X003220Y004043D01*
X003220Y003833D01*
X003220Y003973D02*
X003360Y004113D01*
X003360Y004293D02*
X003360Y004573D01*
X003360Y004433D02*
X002940Y004433D01*
X003080Y004293D01*
X003845Y004693D02*
X003845Y005693D01*
X003847Y005710D01*
X003851Y005727D01*
X003858Y005743D01*
X003868Y005757D01*
X003881Y005770D01*
X003895Y005780D01*
X003911Y005787D01*
X003928Y005791D01*
X003945Y005793D01*
X004545Y005793D01*
X004562Y005791D01*
X004579Y005787D01*
X004595Y005780D01*
X004609Y005770D01*
X004622Y005757D01*
X004632Y005743D01*
X004639Y005727D01*
X004643Y005710D01*
X004645Y005693D01*
X004645Y004693D01*
X004643Y004676D01*
X004639Y004659D01*
X004632Y004643D01*
X004622Y004629D01*
X004609Y004616D01*
X004595Y004606D01*
X004579Y004599D01*
X004562Y004595D01*
X004545Y004593D01*
X003945Y004593D01*
X003928Y004595D01*
X003911Y004599D01*
X003895Y004606D01*
X003881Y004616D01*
X003868Y004629D01*
X003858Y004643D01*
X003851Y004659D01*
X003847Y004676D01*
X003845Y004693D01*
X004785Y004853D02*
X004892Y004960D01*
X005105Y004960D01*
X005105Y005114D02*
X005105Y005275D01*
X005052Y005328D01*
X004838Y005328D01*
X004785Y005275D01*
X004785Y005114D01*
X005105Y005114D01*
X004945Y004960D02*
X004945Y004746D01*
X004892Y004746D02*
X004785Y004853D01*
X004892Y004746D02*
X005105Y004746D01*
X005105Y005483D02*
X005105Y005696D01*
X005105Y005589D02*
X004785Y005589D01*
X004892Y005483D01*
D11*
X002750Y002469D03*
X001450Y002469D03*
D12*
X001450Y002724D03*
X001450Y003236D03*
X002750Y003236D03*
X002750Y002724D03*
D13*
X002750Y002980D03*
X001450Y002980D03*
M02*
